<svg width="200" height="200" viewBox="0 0 200 200" fill="none" xmlns="http://www.w3.org/2000/svg">
<path d="M50.1181 124.704L75.2935 149.879C75.7911 150.377 76.0706 151.052 76.0706 151.756C76.0706 152.459 75.7911 153.134 75.2935 153.632L32.048 196.879C30.0497 198.877 27.3394 200 24.5135 200C21.6875 200 18.9772 198.877 16.9789 196.879L3.1212 183.021C2.13167 182.032 1.34671 180.857 0.811175 179.564C0.275637 178.271 0 176.885 0 175.486C0 174.086 0.275637 172.701 0.811175 171.408C1.34671 170.115 2.13167 168.94 3.1212 167.951L46.3667 124.705C46.613 124.459 46.9054 124.263 47.2273 124.13C47.5491 123.996 47.8941 123.928 48.2424 123.928C48.5908 123.928 48.9357 123.996 49.2575 124.13C49.5794 124.263 49.8718 124.459 50.1181 124.705V124.704Z" fill="black"/>
<path d="M84.1869 149.879L109.362 124.703C109.86 124.206 110.535 123.926 111.238 123.926C111.942 123.926 112.617 124.206 113.114 124.703L156.36 167.95C158.358 169.948 159.481 172.659 159.481 175.485C159.481 178.311 158.358 181.021 156.36 183.02L142.501 196.878C141.512 197.868 140.337 198.653 139.044 199.188C137.752 199.724 136.366 200 134.967 200C133.567 200 132.182 199.724 130.889 199.188C129.596 198.653 128.421 197.868 127.432 196.878L84.1869 153.634C83.6893 153.136 83.4098 152.461 83.4098 151.758C83.4098 151.054 83.6893 150.379 84.1869 149.882V149.879Z" fill="black"/>
<path d="M3.15991 57.5341L17.0185 43.6752C21.1798 39.5137 27.9266 39.5137 32.0879 43.6752L79.7422 91.3307L167.948 3.12091C169.947 1.12262 172.657 0 175.483 0C178.309 0 181.019 1.12262 183.017 3.12091L183.02 3.12015L196.879 16.979C197.868 17.9685 198.653 19.1432 199.189 20.4361C199.724 21.729 200 23.1147 200 24.5141C200 25.9135 199.724 27.2992 199.189 28.5921C198.653 29.885 197.868 31.0597 196.879 32.0492L81.8054 147.198C81.221 147.784 80.4881 148.078 79.7553 148.078C79.0224 148.078 78.2895 147.784 77.7521 147.198L3.15991 72.6039C-1.00139 68.4425 -1.00139 61.6955 3.15991 57.5341Z" fill="black"/>
</svg>
