<svg width="200" height="200" viewBox="0 0 200 200" fill="none" xmlns="http://www.w3.org/2000/svg">
<path fill-rule="evenodd" clip-rule="evenodd" d="M30.793 0H169.207C186.214 0 200 13.7865 200 30.793V169.207C200 186.214 186.214 200 169.207 200H30.793C13.7865 200 0 186.214 0 169.207V30.793C0 13.7865 13.7865 0 30.793 0ZM48.3974 61.8686L39.015 71.251C36.1978 74.0682 36.1978 78.6359 39.015 81.4531L89.5145 131.953C89.8784 132.35 90.3745 132.548 90.8707 132.548C91.3668 132.548 91.863 132.35 92.2587 131.953L170.164 53.998C170.834 53.3281 171.366 52.5328 171.728 51.6576C172.091 50.7823 172.277 49.8442 172.277 48.8968C172.277 47.9494 172.091 47.0113 171.728 46.136C171.366 45.2607 170.834 44.4655 170.164 43.7956L160.782 34.4133L160.78 34.4138C159.427 33.061 157.592 32.301 155.679 32.301C153.766 32.301 151.931 33.061 150.578 34.4138L90.8618 94.131L58.5995 61.8686C55.7822 59.0514 51.2146 59.0514 48.3974 61.8686ZM93.8709 133.768L110.915 116.724C111.252 116.387 111.709 116.198 112.185 116.198C112.661 116.198 113.118 116.387 113.455 116.724L142.733 146.001C144.086 147.354 144.846 149.189 144.846 151.102C144.846 153.016 144.086 154.851 142.733 156.203L133.35 165.586C132.681 166.256 131.885 166.787 131.01 167.15C130.135 167.512 129.197 167.699 128.249 167.699C127.302 167.699 126.364 167.512 125.488 167.15C124.613 166.787 123.818 166.256 123.148 165.586L93.8709 136.31C93.5341 135.973 93.3449 135.516 93.3449 135.04C93.3449 134.563 93.5341 134.106 93.8709 133.769V133.768ZM70.8061 116.724L87.8501 133.768C88.1869 134.105 88.3761 134.562 88.3761 135.038C88.3761 135.514 88.1869 135.971 87.8501 136.308L58.5725 165.586C57.2196 166.939 55.3848 167.699 53.4715 167.699C51.5583 167.699 49.7235 166.939 48.3706 165.586L38.9888 156.204C38.3189 155.535 37.7875 154.739 37.4249 153.864C37.0623 152.989 36.8757 152.051 36.8757 151.103C36.8757 150.156 37.0623 149.218 37.4249 148.342C37.7875 147.467 38.3189 146.672 38.9888 146.002L68.2664 116.725C68.4331 116.558 68.6311 116.426 68.849 116.336C69.0669 116.245 69.3004 116.199 69.5362 116.199C69.7721 116.199 70.0056 116.245 70.2235 116.336C70.4414 116.426 70.6393 116.558 70.8061 116.725V116.724Z" fill="black"/>
</svg>
